<?xml version="1.0" encoding="utf-8"?>
<!-- Generator: Adobe Illustrator 14.0.0, SVG Export Plug-In . SVG Version: 6.00 Build 43363)  -->
<!DOCTYPE svg PUBLIC "-//W3C//DTD SVG 1.1//EN" "http://www.w3.org/Graphics/SVG/1.1/DTD/svg11.dtd">
<svg version="1.1"
	 id="svg8" xmlns:dc="http://purl.org/dc/elements/1.1/" xmlns:cc="http://creativecommons.org/ns#" xmlns:rdf="http://www.w3.org/1999/02/22-rdf-syntax-ns#" xmlns:svg="http://www.w3.org/2000/svg" xmlns:sodipodi="http://sodipodi.sourceforge.net/DTD/sodipodi-0.dtd" xmlns:inkscape="http://www.inkscape.org/namespaces/inkscape" sodipodi:docname="barrel-jack-polarity.svg" inkscape:version="0.92.4 (5da689c313, 2019-01-14)"
	 xmlns="http://www.w3.org/2000/svg" xmlns:xlink="http://www.w3.org/1999/xlink" x="0px" y="0px" width="33.807px"
	 height="6.568px" viewBox="0 0 33.807 6.568" enable-background="new 0 0 33.807 6.568" xml:space="preserve">
<sodipodi:namedview  id="base" pagecolor="#ffffff" showgrid="false" bordercolor="#666666" borderopacity="1.0" inkscape:zoom="1.4" inkscape:cx="440.01375" inkscape:cy="925.78665" inkscape:window-maximized="1" inkscape:pageopacity="0.0" inkscape:pageshadow="2" inkscape:document-units="mm" inkscape:current-layer="layer1" inkscape:window-width="1920" inkscape:window-height="1147" inkscape:window-x="-8" inkscape:window-y="-8">
	</sodipodi:namedview>
<g id="layer1" inkscape:label="Ebene 1" inkscape:groupmode="layer">
	<path id="path898" inkscape:connector-curvature="0" d="M30.523,0c-1.688,0.002-3.098,1.281-3.264,2.96h-7.974
		c-0.156-0.847-0.895-1.461-1.756-1.462c-0.986,0-1.786,0.8-1.786,1.786l0,0c0,0.986,0.8,1.786,1.786,1.786l0,0
		c0.861-0.001,1.6-0.615,1.756-1.462h7.97c0.166,1.68,1.58,2.96,3.268,2.96c1.814,0,3.283-1.471,3.283-3.284S32.338,0,30.523,0
		L30.523,0L30.523,0z M30.523,0.653c1.453,0,2.631,1.178,2.631,2.631l0,0c0,1.453-1.178,2.631-2.631,2.631
		c-1.454,0-2.631-1.178-2.631-2.631S29.07,0.653,30.523,0.653L30.523,0.653z"/>
	<path id="path900" inkscape:connector-curvature="0" d="M3.284,0C1.47,0,0,1.47,0,3.284l0,0c0,1.813,1.47,3.284,3.284,3.284l0,0
		c1.687-0.002,3.098-1.281,3.265-2.96h7.714c0.167,1.68,1.58,2.96,3.268,2.96c0.634-0.001,1.254-0.186,1.785-0.532V5.212
		c-0.485,0.45-1.123,0.701-1.785,0.702c-1.454,0-2.631-1.178-2.631-2.631s1.178-2.631,2.631-2.631
		c0.662,0.001,1.3,0.252,1.785,0.703V0.529C18.784,0.184,18.164,0,17.53,0c-1.688,0.002-3.098,1.281-3.265,2.96H6.551
		C6.385,1.28,4.972,0,3.284,0z M3.284,0.653c1.453,0,2.631,1.178,2.631,2.631l0,0c0,1.453-1.178,2.631-2.631,2.631
		S0.653,4.737,0.653,3.284S1.831,0.653,3.284,0.653L3.284,0.653z"/>
	<g id="g904" transform="matrix(-0.50694673,0,0,-0.50694673,148.72308,147.03363)">
		<path id="path902" inkscape:connector-curvature="0" d="M233.734,280.337v2.52h2.521v1.395h-2.521v2.531h-1.387v-2.531h-2.531
			v-1.395h2.531v-2.52H233.734z"/>
	</g>
	<g id="g908" transform="matrix(-0.50694673,0,0,-0.50694673,149.76251,147.03363)">
		<path id="path906" inkscape:connector-curvature="0" d="M285.068,282.84h7.225v1.441h-7.225V282.84z"/>
	</g>
</g>
</svg>
