<?xml version="1.0" encoding="utf-8"?>
<!-- Generator: Adobe Illustrator 14.0.0, SVG Export Plug-In . SVG Version: 6.00 Build 43363)  -->
<!DOCTYPE svg PUBLIC "-//W3C//DTD SVG 1.1//EN" "http://www.w3.org/Graphics/SVG/1.1/DTD/svg11.dtd">
<svg version="1.1" id="Layer_1" xmlns="http://www.w3.org/2000/svg" xmlns:xlink="http://www.w3.org/1999/xlink" x="0px" y="0px"
	 width="45.667px" height="19.583px" viewBox="0 0 45.667 19.583" enable-background="new 0 0 45.667 19.583" xml:space="preserve">
<path fill-rule="evenodd" clip-rule="evenodd" d="M10.686,5.682c-0.386,0.447-0.46,1.207-0.8,1.7c0.245,0.555,0.745,0.855,0.6,1.8
	c1.105,0.721,1.306-0.549,2.7-0.2c2.896,0.726-0.258,5.483-2.1,2.5c-0.122-0.311-0.233-0.634-0.2-1.1
	c-0.61-0.403-1.032-0.214-1.6,0.1c0,0.633,0,1.267,0,1.9c2.963,0.416,2.728,5.099,0,5.5c-3.603,0.531-4.438-4.82-1-5.4
	c0-0.633,0-1.267,0-1.9c-0.467-0.429-1-0.604-1.6-0.2c0.081,1.719-1.135,2.238-2.2,2c-2.691-0.602-0.357-5.141,1.8-2.9
	c0.646-0.088,0.875-0.591,0.9-1.3c-0.63-0.565-0.886,0.077-1.7,0c-2.445-0.231-1.581-4.322,0.9-3.4c1.007,0.374,0.895,1.388,1.1,2.5
	c0.437,0.313,0.705-0.254,1.3-0.1c0.479-0.387,0.502-1.231,0.9-1.7c-0.226-0.527-0.516-0.599-0.6-1.1
	c-0.5-2.983,3.691-2.523,3.4-0.1C12.392,5.065,11.908,5.636,10.686,5.682z M10.085,4.381c0.522,0.731,1.885,0.067,1.3-0.9
	C10.792,3.014,9.777,3.339,10.085,4.381z M5.686,7.182c0.916,0,0.896-1.805-0.2-1.4C4.69,6.076,4.918,7.182,5.686,7.182z
	 M9.386,8.381c-0.273-0.411-0.945-0.319-1.3,0.1C7.815,10.349,10.145,9.525,9.386,8.381z M13.386,10.682
	c0.015-0.588-0.497-0.745-0.8-0.7C10.612,10.273,13.338,12.577,13.386,10.682z M4.386,11.182c0.329,0.318,1.058,0.219,1.3-0.1
	c0-0.267,0-0.533,0-0.8C5.152,9.539,3.796,10.21,4.386,11.182z M9.186,16.881c0.705-0.118,1.66-0.865,1.3-2.3
	c-0.21-0.841-1.074-1.314-2.1-1.1C6.042,13.971,7.006,17.248,9.186,16.881z"/>
<path fill-rule="evenodd" clip-rule="evenodd" d="M23.186,8.682c-0.013,0.387-0.406,0.395-0.5,0.7c-2.249-2.056-2.732,3.062-1.2,3.2
	c0.601,0.054,1.028-0.313,1-1.1c-0.106-0.227-0.628-0.038-0.9-0.1c0-0.3,0-0.6,0-0.9c0.667,0,1.333,0,2,0
	c0.959,3.056-3.217,4.126-3.9,1.7c-0.19-0.676-0.217-2.316,0.1-3.1C20.197,8.065,22.276,7.633,23.186,8.682z"/>
<path fill-rule="evenodd" clip-rule="evenodd" d="M24.585,8.082c2.886-0.847,5.043,1.621,2.9,3.1c0.291,0.842,0.757,1.51,1.1,2.3
	c-0.4,0-0.8,0-1.2,0c-0.607-0.659-0.396-2.137-1.6-2.2c-0.43,0.37-0.093,1.507-0.2,2.2c-0.333,0-0.667,0-1,0
	C24.585,11.682,24.585,9.881,24.585,8.082z M25.686,10.481c0.95,0.05,1.788-0.012,1.6-1.1c-0.242-0.424-1.052-0.281-1.7-0.3
	C25.629,9.538,25.484,10.183,25.686,10.481z"/>
<path fill-rule="evenodd" clip-rule="evenodd" d="M30.585,8.182c2.522-0.678,3.282,2.47,2.4,4.3c-0.562,1.167-2.803,1.448-3.5,0.1
	C28.615,10.898,29.324,8.521,30.585,8.182z M31.985,9.381c-1.632-1.605-2.183,1.86-1.4,3C32.338,13.254,32.284,10.658,31.985,9.381z
	"/>
<path fill-rule="evenodd" clip-rule="evenodd" d="M33.585,8.082c0.367,0,0.733,0,1.1,0c0.215,1.185,0.714,2.086,0.9,3.3
	c0.657-0.843,0.737-2.263,1.2-3.3c0.333,0,0.667,0,1,0c-0.496,1.904-1.096,3.704-1.8,5.4c-1.116-0.043-1.131-1.5-1.4-2.3
	c-0.324-0.965-0.714-1.92-0.9-2.8C33.633,8.301,33.581,8.219,33.585,8.082z"/>
<path fill-rule="evenodd" clip-rule="evenodd" d="M38.485,8.082c1.167,0,2.333,0,3.5,0c0,0.333,0,0.667,0,1c-0.8,0-1.6,0-2.4,0
	c-0.229,0.171-0.037,0.763-0.1,1.1c0.516,0.217,1.422,0.045,2.1,0.1c0,0.3,0,0.6,0,0.9c-0.667,0-1.333,0-2,0
	c-0.197,0.27-0.06,0.874-0.1,1.3c0.833,0,1.667,0,2.5,0c0,0.333,0,0.667,0,1c-1.167,0-2.333,0-3.5,0
	C38.485,11.682,38.485,9.881,38.485,8.082z"/>
</svg>
