<?xml version="1.0" encoding="utf-8"?>
<!-- Generator: Adobe Illustrator 14.0.0, SVG Export Plug-In . SVG Version: 6.00 Build 43363)  -->
<!DOCTYPE svg PUBLIC "-//W3C//DTD SVG 1.1//EN" "http://www.w3.org/Graphics/SVG/1.1/DTD/svg11.dtd">
<svg version="1.1" id="Layer_1" xmlns="http://www.w3.org/2000/svg" xmlns:xlink="http://www.w3.org/1999/xlink" x="0px" y="0px"
	 width="32.076px" height="14.268px" viewBox="298.507 131.619 32.076 14.268"
	 enable-background="new 298.507 131.619 32.076 14.268" xml:space="preserve">
<g>
	<g>
		<defs>
			<rect id="SVGID_1_" x="298.507" y="131.619" width="32.076" height="14.268"/>
		</defs>
		<clipPath id="SVGID_2_">
			<use xlink:href="#SVGID_1_"  overflow="visible"/>
		</clipPath>
		<path clip-path="url(#SVGID_2_)" d="M323.356,134.682h-17.836c-2.363,0-4.278,1.916-4.278,4.278l0,0
			c0,2.362,1.915,4.278,4.278,4.278h1.323v-2.407c-0.337,0.456-0.839,0.702-1.459,0.702c-1.386,0-2.297-1.021-2.297-2.553
			c0-1.504,0.902-2.499,2.261-2.499c0.639,0,1.149,0.255,1.496,0.702v-0.647h1.623v6.701h14.89c2.363,0,4.278-1.916,4.278-4.278l0,0
			C327.635,136.597,325.72,134.682,323.356,134.682 M315.614,141.47h-1.604l-0.939-3.045l-0.948,3.045h-1.604l-1.796-4.933h1.65
			l0.984,3.337l0.967-3.337h1.55l0.976,3.337l0.984-3.337h1.587L315.614,141.47z M319.216,141.47h-1.614v-4.933h1.614V141.47z
			 M321.157,141.47h-1.613v-4.933h1.613V141.47z M324.317,137.849c-0.08-0.017-0.163-0.027-0.252-0.027
			c-0.583,0-0.984,0.483-0.984,1.194c0,0.721,0.401,1.194,0.984,1.194c0.089,0,0.172-0.009,0.252-0.024v1.321
			c-0.108,0.01-0.22,0.017-0.334,0.017c-1.522,0-2.534-0.994-2.534-2.499c0-1.532,1.021-2.544,2.553-2.544
			c0.107,0,0.213,0.006,0.315,0.016V137.849L324.317,137.849z"/>
	</g>
	<g>
		<defs>
			<rect id="SVGID_3_" x="298.507" y="131.619" width="32.076" height="14.268"/>
		</defs>
		<clipPath id="SVGID_4_">
			<use xlink:href="#SVGID_3_"  overflow="visible"/>
		</clipPath>
		<path clip-path="url(#SVGID_4_)" d="M305.786,137.795c-0.638,0-1.067,0.501-1.067,1.231c0,0.729,0.429,1.231,1.067,1.231
			c0.629,0,1.058-0.502,1.058-1.231C306.844,138.288,306.415,137.795,305.786,137.795"/>
	</g>
	<g>
		<defs>
			<rect id="SVGID_5_" x="298.507" y="131.619" width="32.076" height="14.268"/>
		</defs>
		<clipPath id="SVGID_6_">
			<use xlink:href="#SVGID_5_"  overflow="visible"/>
		</clipPath>
		<path clip-path="url(#SVGID_6_)" d="M328.259,142.399c0,0.442-0.356,0.816-0.813,0.816c-0.454,0-0.806-0.369-0.806-0.811
			s0.354-0.815,0.811-0.815C327.904,141.588,328.259,141.953,328.259,142.399 M328.086,142.399c0-0.347-0.277-0.632-0.636-0.632
			c-0.361,0-0.639,0.29-0.639,0.637s0.275,0.631,0.634,0.631C327.809,143.034,328.086,142.745,328.086,142.399 M327.644,142.506
			l0.17,0.259h-0.198l-0.124-0.226h-0.02h-0.158v0.226h-0.172v-0.777h0.33c0.206,0,0.32,0.098,0.32,0.268
			C327.792,142.377,327.739,142.463,327.644,142.506 M327.313,142.401h0.158c0.098,0,0.155-0.05,0.155-0.139
			c0-0.088-0.058-0.136-0.155-0.136h-0.158V142.401z"/>
	</g>
</g>
</svg>
